%TF.GenerationSoftware,KiCad,Pcbnew,9.0.0*%
%TF.CreationDate,2025-03-31T18:37:57+02:00*%
%TF.ProjectId,servicetastatur,73657276-6963-4657-9461-737461747572,rev?*%
%TF.SameCoordinates,Original*%
%TF.FileFunction,Soldermask,Top*%
%TF.FilePolarity,Negative*%
%FSLAX46Y46*%
G04 Gerber Fmt 4.6, Leading zero omitted, Abs format (unit mm)*
G04 Created by KiCad (PCBNEW 9.0.0) date 2025-03-31 18:37:57*
%MOMM*%
%LPD*%
G01*
G04 APERTURE LIST*
G04 Aperture macros list*
%AMRoundRect*
0 Rectangle with rounded corners*
0 $1 Rounding radius*
0 $2 $3 $4 $5 $6 $7 $8 $9 X,Y pos of 4 corners*
0 Add a 4 corners polygon primitive as box body*
4,1,4,$2,$3,$4,$5,$6,$7,$8,$9,$2,$3,0*
0 Add four circle primitives for the rounded corners*
1,1,$1+$1,$2,$3*
1,1,$1+$1,$4,$5*
1,1,$1+$1,$6,$7*
1,1,$1+$1,$8,$9*
0 Add four rect primitives between the rounded corners*
20,1,$1+$1,$2,$3,$4,$5,0*
20,1,$1+$1,$4,$5,$6,$7,0*
20,1,$1+$1,$6,$7,$8,$9,0*
20,1,$1+$1,$8,$9,$2,$3,0*%
G04 Aperture macros list end*
%ADD10RoundRect,0.225000X0.250000X-0.225000X0.250000X0.225000X-0.250000X0.225000X-0.250000X-0.225000X0*%
%ADD11RoundRect,0.225000X-0.225000X-0.250000X0.225000X-0.250000X0.225000X0.250000X-0.225000X0.250000X0*%
%ADD12RoundRect,0.200000X-0.275000X0.200000X-0.275000X-0.200000X0.275000X-0.200000X0.275000X0.200000X0*%
%ADD13RoundRect,0.162500X0.750000X0.162500X-0.750000X0.162500X-0.750000X-0.162500X0.750000X-0.162500X0*%
%ADD14RoundRect,0.200000X-0.200000X-0.275000X0.200000X-0.275000X0.200000X0.275000X-0.200000X0.275000X0*%
%ADD15C,2.000000*%
%ADD16RoundRect,0.200000X0.200000X0.275000X-0.200000X0.275000X-0.200000X-0.275000X0.200000X-0.275000X0*%
%ADD17C,1.500000*%
%ADD18RoundRect,0.250000X0.550000X-0.550000X0.550000X0.550000X-0.550000X0.550000X-0.550000X-0.550000X0*%
%ADD19C,1.600000*%
%ADD20RoundRect,0.225000X0.225000X0.250000X-0.225000X0.250000X-0.225000X-0.250000X0.225000X-0.250000X0*%
%ADD21RoundRect,0.225000X-0.375000X0.225000X-0.375000X-0.225000X0.375000X-0.225000X0.375000X0.225000X0*%
%ADD22O,1.524000X3.250000*%
%ADD23RoundRect,0.150000X-1.050000X-0.150000X1.050000X-0.150000X1.050000X0.150000X-1.050000X0.150000X0*%
%ADD24C,2.340000*%
%ADD25RoundRect,0.218750X-0.256250X0.218750X-0.256250X-0.218750X0.256250X-0.218750X0.256250X0.218750X0*%
%ADD26R,1.422400X1.422400*%
%ADD27C,1.422400*%
%ADD28RoundRect,0.225000X-0.250000X0.225000X-0.250000X-0.225000X0.250000X-0.225000X0.250000X0.225000X0*%
%ADD29C,7.400000*%
%ADD30RoundRect,0.150000X0.150000X-0.725000X0.150000X0.725000X-0.150000X0.725000X-0.150000X-0.725000X0*%
%ADD31C,1.800000*%
%ADD32C,5.500000*%
%ADD33RoundRect,0.250000X0.650000X-0.325000X0.650000X0.325000X-0.650000X0.325000X-0.650000X-0.325000X0*%
%ADD34RoundRect,0.243750X0.456250X-0.243750X0.456250X0.243750X-0.456250X0.243750X-0.456250X-0.243750X0*%
%ADD35RoundRect,0.250000X0.325000X0.650000X-0.325000X0.650000X-0.325000X-0.650000X0.325000X-0.650000X0*%
%ADD36R,4.500000X2.000000*%
%ADD37RoundRect,0.150000X1.050000X0.150000X-1.050000X0.150000X-1.050000X-0.150000X1.050000X-0.150000X0*%
%ADD38RoundRect,0.150000X0.150000X-0.825000X0.150000X0.825000X-0.150000X0.825000X-0.150000X-0.825000X0*%
%ADD39RoundRect,0.100000X0.100000X-0.637500X0.100000X0.637500X-0.100000X0.637500X-0.100000X-0.637500X0*%
G04 APERTURE END LIST*
D10*
%TO.C,C11*%
X151765000Y-44095000D03*
X151765000Y-42545000D03*
%TD*%
D11*
%TO.C,C17*%
X110845000Y-55245000D03*
X112395000Y-55245000D03*
%TD*%
D12*
%TO.C,R16*%
X172720000Y-42712500D03*
X172720000Y-44362500D03*
%TD*%
D13*
%TO.C,U13*%
X144780000Y-53340000D03*
X144780000Y-52070000D03*
X144780000Y-50800000D03*
X144780000Y-49530000D03*
X144780000Y-48260000D03*
X144780000Y-46990000D03*
X144780000Y-45720000D03*
X144780000Y-44450000D03*
X138605000Y-44450000D03*
X138605000Y-45720000D03*
X138605000Y-46990000D03*
X138605000Y-48260000D03*
X138605000Y-49530000D03*
X138605000Y-50800000D03*
X138605000Y-52070000D03*
X138605000Y-53340000D03*
%TD*%
D11*
%TO.C,C8*%
X82550000Y-60960000D03*
X84100000Y-60960000D03*
%TD*%
%TO.C,C18*%
X110972000Y-22606000D03*
X112522000Y-22606000D03*
%TD*%
%TO.C,C14*%
X89890000Y-22860000D03*
X91440000Y-22860000D03*
%TD*%
D10*
%TO.C,C22*%
X151130000Y-58420000D03*
X151130000Y-56870000D03*
%TD*%
D14*
%TO.C,R18*%
X178602500Y-35560000D03*
X180252500Y-35560000D03*
%TD*%
D15*
%TO.C,SW2*%
X37390000Y-63790000D03*
X43890000Y-63790000D03*
X37390000Y-68290000D03*
X43890000Y-68290000D03*
%TD*%
D16*
%TO.C,R25*%
X102425000Y-53975000D03*
X100775000Y-53975000D03*
%TD*%
D17*
%TO.C,Y1*%
X163957000Y-45466000D03*
X159077000Y-45466000D03*
%TD*%
D18*
%TO.C,U3*%
X38354000Y-58166000D03*
D19*
X40894000Y-58166000D03*
X43434000Y-58166000D03*
X45974000Y-58166000D03*
X48514000Y-58166000D03*
X51054000Y-58166000D03*
X53594000Y-58166000D03*
X56134000Y-58166000D03*
X58674000Y-58166000D03*
X61214000Y-58166000D03*
X63754000Y-58166000D03*
X66294000Y-58166000D03*
X68834000Y-58166000D03*
X71374000Y-58166000D03*
X71374000Y-42926000D03*
X68834000Y-42926000D03*
X66294000Y-42926000D03*
X63754000Y-42926000D03*
X61214000Y-42926000D03*
X58674000Y-42926000D03*
X56134000Y-42926000D03*
X53594000Y-42926000D03*
X51054000Y-42926000D03*
X48514000Y-42926000D03*
X45974000Y-42926000D03*
X43434000Y-42926000D03*
X40894000Y-42926000D03*
X38354000Y-42926000D03*
%TD*%
D15*
%TO.C,SW3*%
X119940000Y-68870000D03*
X126440000Y-68870000D03*
X119940000Y-73370000D03*
X126440000Y-73370000D03*
%TD*%
D20*
%TO.C,C5*%
X105690000Y-53975000D03*
X104140000Y-53975000D03*
%TD*%
D15*
%TO.C,SW7*%
X27230000Y-56170000D03*
X33730000Y-56170000D03*
X27230000Y-60670000D03*
X33730000Y-60670000D03*
%TD*%
D21*
%TO.C,D4*%
X127000000Y-55755000D03*
X127000000Y-59055000D03*
%TD*%
D20*
%TO.C,C13*%
X143510000Y-55880000D03*
X141960000Y-55880000D03*
%TD*%
D12*
%TO.C,R14*%
X135128000Y-52070000D03*
X135128000Y-53720000D03*
%TD*%
%TO.C,R9*%
X175260000Y-31837500D03*
X175260000Y-33487500D03*
%TD*%
D15*
%TO.C,SW5*%
X17070000Y-63790000D03*
X23570000Y-63790000D03*
X17070000Y-68290000D03*
X23570000Y-68290000D03*
%TD*%
D22*
%TO.C,J3*%
X170180000Y-48260000D03*
X172720000Y-48260000D03*
X175260000Y-48260000D03*
X177800000Y-48260000D03*
X180340000Y-48260000D03*
X182880000Y-48260000D03*
%TD*%
D23*
%TO.C,U16*%
X106530000Y-57150000D03*
X106530000Y-58420000D03*
X106530000Y-59690000D03*
X106530000Y-60960000D03*
X106530000Y-62230000D03*
X106530000Y-63500000D03*
X106530000Y-64770000D03*
X106530000Y-66040000D03*
X113030000Y-66040000D03*
X113030000Y-64770000D03*
X113030000Y-63500000D03*
X113030000Y-62230000D03*
X113030000Y-60960000D03*
X113030000Y-59690000D03*
X113030000Y-58420000D03*
X113030000Y-57150000D03*
%TD*%
D10*
%TO.C,C15*%
X73660000Y-57925000D03*
X73660000Y-56375000D03*
%TD*%
D24*
%TO.C,RV2*%
X33020000Y-25480000D03*
X23020000Y-27980000D03*
X33020000Y-30480000D03*
%TD*%
D15*
%TO.C,SW9*%
X94540000Y-68870000D03*
X101040000Y-68870000D03*
X94540000Y-73370000D03*
X101040000Y-73370000D03*
%TD*%
D25*
%TO.C,D1*%
X194310000Y-59690000D03*
X194310000Y-61265000D03*
%TD*%
D11*
%TO.C,C12*%
X133070000Y-62230000D03*
X134620000Y-62230000D03*
%TD*%
D21*
%TO.C,D3*%
X185420000Y-39280000D03*
X185420000Y-42580000D03*
%TD*%
D20*
%TO.C,C10*%
X99695000Y-56515000D03*
X98145000Y-56515000D03*
%TD*%
D26*
%TO.C,U11*%
X90170000Y-30480000D03*
D27*
X87630000Y-27940000D03*
X87630000Y-30480000D03*
X85090000Y-27940000D03*
X85090000Y-30480000D03*
X82550000Y-27940000D03*
X80010000Y-30480000D03*
X82550000Y-30480000D03*
X80010000Y-33020000D03*
X82550000Y-33020000D03*
X80010000Y-35560000D03*
X82550000Y-35560000D03*
X80010000Y-38100000D03*
X82550000Y-38100000D03*
X80010000Y-40640000D03*
X82550000Y-40640000D03*
X80010000Y-43180000D03*
X82550000Y-45720000D03*
X82550000Y-43180000D03*
X85090000Y-45720000D03*
X85090000Y-43180000D03*
X87630000Y-45720000D03*
X87630000Y-43180000D03*
X90170000Y-45720000D03*
X90170000Y-43180000D03*
X92710000Y-45720000D03*
X92710000Y-43180000D03*
X95250000Y-45720000D03*
X97790000Y-43180000D03*
X95250000Y-43180000D03*
X97790000Y-40640000D03*
X95250000Y-40640000D03*
X97790000Y-38100000D03*
X95250000Y-38100000D03*
X97790000Y-35560000D03*
X95250000Y-35560000D03*
X97790000Y-33020000D03*
X95250000Y-33020000D03*
X97790000Y-30480000D03*
X95250000Y-27940000D03*
X95250000Y-30480000D03*
X92710000Y-27940000D03*
X92710000Y-30480000D03*
X90170000Y-27940000D03*
%TD*%
D28*
%TO.C,C4*%
X38354000Y-39598000D03*
X38354000Y-41148000D03*
%TD*%
D29*
%TO.C,H2*%
X193040000Y-73660000D03*
%TD*%
D12*
%TO.C,R8*%
X177800000Y-31837500D03*
X177800000Y-33487500D03*
%TD*%
D30*
%TO.C,U15*%
X76200000Y-59690000D03*
X77470000Y-59690000D03*
X78740000Y-59690000D03*
X80010000Y-59690000D03*
X80010000Y-54540000D03*
X78740000Y-54540000D03*
X77470000Y-54540000D03*
X76200000Y-54540000D03*
%TD*%
D28*
%TO.C,C9*%
X165862000Y-40106000D03*
X165862000Y-41656000D03*
%TD*%
D24*
%TO.C,RV1*%
X33020000Y-43180000D03*
X23020000Y-45680000D03*
X33020000Y-48180000D03*
%TD*%
D28*
%TO.C,C21*%
X121285000Y-54330000D03*
X121285000Y-55880000D03*
%TD*%
D14*
%TO.C,R10*%
X173522500Y-40640000D03*
X175172500Y-40640000D03*
%TD*%
D12*
%TO.C,R1*%
X194310000Y-55500000D03*
X194310000Y-57150000D03*
%TD*%
D31*
%TO.C,J2*%
X19050000Y-46440000D03*
X16510000Y-46440000D03*
X19050000Y-43900000D03*
X16510000Y-43900000D03*
X19050000Y-41360000D03*
X16510000Y-41360000D03*
X19050000Y-38820000D03*
X16510000Y-38820000D03*
X19050000Y-36280000D03*
X16510000Y-36280000D03*
X19050000Y-33740000D03*
X16510000Y-33740000D03*
X19050000Y-31200000D03*
X16510000Y-31200000D03*
X19050000Y-28660000D03*
X16510000Y-28660000D03*
D32*
X17780000Y-24300000D03*
X17780000Y-50800000D03*
X192780000Y-24300000D03*
X192780000Y-50800000D03*
%TD*%
D15*
%TO.C,SW6*%
X69140000Y-68870000D03*
X75640000Y-68870000D03*
X69140000Y-73370000D03*
X75640000Y-73370000D03*
%TD*%
%TO.C,SW1*%
X179630000Y-66330000D03*
X186130000Y-66330000D03*
X179630000Y-70830000D03*
X186130000Y-70830000D03*
%TD*%
D33*
%TO.C,C1*%
X185420000Y-30255000D03*
X185420000Y-27305000D03*
%TD*%
D34*
%TO.C,F1*%
X185420000Y-35560000D03*
X185420000Y-33685000D03*
%TD*%
D11*
%TO.C,C16*%
X48488000Y-24892000D03*
X50038000Y-24892000D03*
%TD*%
D29*
%TO.C,H1*%
X17780000Y-73660000D03*
%TD*%
D35*
%TO.C,C2*%
X23905000Y-55245000D03*
X20955000Y-55245000D03*
%TD*%
D10*
%TO.C,C19*%
X74930000Y-33300000D03*
X74930000Y-31750000D03*
%TD*%
D36*
%TO.C,Y2*%
X94860000Y-57150000D03*
X86360000Y-57150000D03*
%TD*%
D10*
%TO.C,C20*%
X167640000Y-29350000D03*
X167640000Y-27800000D03*
%TD*%
D15*
%TO.C,SW4*%
X147880000Y-68870000D03*
X154380000Y-68870000D03*
X147880000Y-73370000D03*
X154380000Y-73370000D03*
%TD*%
%TO.C,SW8*%
X27230000Y-71410000D03*
X33730000Y-71410000D03*
X27230000Y-75910000D03*
X33730000Y-75910000D03*
%TD*%
D18*
%TO.C,U1*%
X115062000Y-39116000D03*
D19*
X117602000Y-39116000D03*
X120142000Y-39116000D03*
X122682000Y-39116000D03*
X125222000Y-39116000D03*
X127762000Y-39116000D03*
X130302000Y-39116000D03*
X132842000Y-39116000D03*
X135382000Y-39116000D03*
X137922000Y-39116000D03*
X140462000Y-39116000D03*
X143002000Y-39116000D03*
X145542000Y-39116000D03*
X148082000Y-39116000D03*
X150622000Y-39116000D03*
X153162000Y-39116000D03*
X155702000Y-39116000D03*
X158242000Y-39116000D03*
X160782000Y-39116000D03*
X163322000Y-39116000D03*
X163322000Y-23876000D03*
X160782000Y-23876000D03*
X158242000Y-23876000D03*
X155702000Y-23876000D03*
X153162000Y-23876000D03*
X150622000Y-23876000D03*
X148082000Y-23876000D03*
X145542000Y-23876000D03*
X143002000Y-23876000D03*
X140462000Y-23876000D03*
X137922000Y-23876000D03*
X135382000Y-23876000D03*
X132842000Y-23876000D03*
X130302000Y-23876000D03*
X127762000Y-23876000D03*
X125222000Y-23876000D03*
X122682000Y-23876000D03*
X120142000Y-23876000D03*
X117602000Y-23876000D03*
X115062000Y-23876000D03*
%TD*%
D12*
%TO.C,R3*%
X125095000Y-55500000D03*
X125095000Y-57150000D03*
%TD*%
D37*
%TO.C,U20*%
X127785000Y-52705000D03*
X127785000Y-51435000D03*
X127785000Y-50165000D03*
X127785000Y-48895000D03*
X127785000Y-47625000D03*
X127785000Y-46355000D03*
X127785000Y-45085000D03*
X127785000Y-43815000D03*
X121285000Y-43815000D03*
X121285000Y-45085000D03*
X121285000Y-46355000D03*
X121285000Y-47625000D03*
X121285000Y-48895000D03*
X121285000Y-50165000D03*
X121285000Y-51435000D03*
X121285000Y-52705000D03*
%TD*%
D12*
%TO.C,R7*%
X180340000Y-31837500D03*
X180340000Y-33487500D03*
%TD*%
D38*
%TO.C,U2*%
X153670000Y-60325000D03*
X154940000Y-60325000D03*
X156210000Y-60325000D03*
X157480000Y-60325000D03*
X158750000Y-60325000D03*
X160020000Y-60325000D03*
X161290000Y-60325000D03*
X161290000Y-55375000D03*
X160020000Y-55375000D03*
X158750000Y-55375000D03*
X157480000Y-55375000D03*
X156210000Y-55375000D03*
X154940000Y-55375000D03*
X153670000Y-55375000D03*
%TD*%
D37*
%TO.C,U19*%
X110652500Y-52070000D03*
X110652500Y-50800000D03*
X110652500Y-49530000D03*
X110652500Y-48260000D03*
X110652500Y-46990000D03*
X110652500Y-45720000D03*
X110652500Y-44450000D03*
X110652500Y-43180000D03*
X104152500Y-43180000D03*
X104152500Y-44450000D03*
X104152500Y-45720000D03*
X104152500Y-46990000D03*
X104152500Y-48260000D03*
X104152500Y-49530000D03*
X104152500Y-50800000D03*
X104152500Y-52070000D03*
%TD*%
D14*
%TO.C,R17*%
X176062500Y-38100000D03*
X177712500Y-38100000D03*
%TD*%
D39*
%TO.C,U12*%
X51939000Y-30802500D03*
X52589000Y-30802500D03*
X53239000Y-30802500D03*
X53889000Y-30802500D03*
X54539000Y-30802500D03*
X55189000Y-30802500D03*
X55839000Y-30802500D03*
X56489000Y-30802500D03*
X57139000Y-30802500D03*
X57789000Y-30802500D03*
X57789000Y-25077500D03*
X57139000Y-25077500D03*
X56489000Y-25077500D03*
X55839000Y-25077500D03*
X55189000Y-25077500D03*
X54539000Y-25077500D03*
X53889000Y-25077500D03*
X53239000Y-25077500D03*
X52589000Y-25077500D03*
X51939000Y-25077500D03*
%TD*%
M02*
