M48
; DRILL file {KiCad 9.0.0} date 2025-03-31T18:37:57+0200
; FORMAT={-:-/ absolute / inch / decimal}
; #@! TF.CreationDate,2025-03-31T18:37:57+02:00
; #@! TF.GenerationSoftware,Kicad,Pcbnew,9.0.0
; #@! TF.FileFunction,Plated,1,2,PTH
FMAT,2
INCH
; #@! TA.AperFunction,Plated,PTH,ViaDrill
T1C0.0157
; #@! TA.AperFunction,Plated,PTH,ComponentDrill
T2C0.0315
; #@! TA.AperFunction,Plated,PTH,ComponentDrill
T3C0.0394
; #@! TA.AperFunction,Plated,PTH,ComponentDrill
T4C0.0433
; #@! TA.AperFunction,Plated,PTH,ComponentDrill
T5C0.0512
; #@! TA.AperFunction,Plated,PTH,ComponentDrill
T6C0.1378
; #@! TA.AperFunction,Plated,PTH,ComponentDrill
T7C0.1457
%
G90
G05
T1
X0.8251Y-1.2973
X0.8325Y-2.4586
X0.8371Y-1.5427
X0.85Y-1.2
X0.9263Y-1.4709
X1.0Y-1.75
X1.0305Y-1.3685
X1.15Y-2.55
X1.2328Y-2.0792
X1.24Y-1.5748
X1.4Y-1.6
X1.5Y-1.33
X1.5Y-1.43
X1.55Y-1.9
X1.61Y-2.1766
X1.65Y-2.8
X1.71Y-1.2
X1.71Y-1.58
X1.71Y-1.95
X1.71Y-2.1
X1.7641Y-1.0431
X1.8322Y-1.9033
X1.8381Y-1.6318
X1.85Y-2.55
X1.8714Y-0.9431
X1.92Y-1.2
X1.92Y-1.49
X1.9497Y-0.9079
X1.9898Y-0.9072
X2.01Y-2.18
X2.0707Y-1.2656
X2.0965Y-0.9333
X2.1Y-1.6
X2.1Y-2.2
X2.1Y-2.7
X2.1101Y-1.0508
X2.13Y-2.36
X2.1379Y-0.9342
X2.1472Y-1.2714
X2.1959Y-1.1475
X2.2Y-1.56
X2.2192Y-0.9281
X2.2637Y-1.5
X2.2742Y-1.3133
X2.3Y-0.85
X2.3Y-1.85
X2.3Y-2.0
X2.3078Y-1.0309
X2.31Y-1.55
X2.3419Y-1.0685
X2.3502Y-1.418
X2.4Y-1.2
X2.4Y-1.54
X2.4Y-1.9
X2.467Y-1.2758
X2.4935Y-1.3344
X2.5Y-1.95
X2.5Y-2.2
X2.55Y-2.525
X2.6Y-2.05
X2.6Y-2.7
X2.6177Y-1.3894
X2.63Y-1.24
X2.65Y-0.95
X2.65Y-1.141
X2.6807Y-1.3015
X2.7Y-1.85
X2.7Y-2.2
X2.7033Y-1.3519
X2.7435Y-1.4495
X2.8Y-1.6
X2.8Y-2.0
X2.83Y-1.45
X2.8411Y-1.2303
X2.9Y-1.75
X2.95Y-2.3
X2.9647Y-1.3972
X2.9931Y-1.254
X3.0Y-1.75
X3.0405Y-2.7741
X3.1024Y-2.6207
X3.1024Y-2.7696
X3.1971Y-2.6392
X3.2Y-2.74
X3.25Y-2.6678
X3.25Y-2.9
X3.3006Y-2.657
X3.3041Y-1.2833
X3.32Y-1.51
X3.38Y-1.4
X3.3914Y-1.3459
X3.4271Y-2.3594
X3.5Y-2.0
X3.5307Y-2.3734
X3.5417Y-2.2048
X3.5882Y-2.4924
X3.6Y-1.4
X3.6Y-1.5
X3.6847Y-2.4791
X3.6903Y-2.5253
X3.8191Y-1.1432
X3.85Y-2.0
X3.88Y-2.75
X3.9156Y-2.4
X3.938Y-1.3391
X3.9459Y-1.2818
X3.9964Y-1.7558
X4.0Y-0.95
X4.0Y-1.1
X4.01Y-2.025
X4.0286Y-1.6881
X4.0303Y-1.1716
X4.0719Y-0.8396
X4.0757Y-2.2214
X4.1Y-1.4
X4.1Y-2.75
X4.1Y-2.9
X4.1111Y-1.222
X4.1503Y-0.8209
X4.1778Y-2.0
X4.2283Y-1.0327
X4.2283Y-1.8362
X4.2578Y-1.7147
X4.2711Y-2.5644
X4.2845Y-1.7457
X4.3Y-1.4
X4.314Y-2.125
X4.3219Y-2.5472
X4.3225Y-1.5622
X4.3433Y-1.1018
X4.373Y-1.1358
X4.4Y-2.85
X4.4159Y-1.1698
X4.4273Y-1.2893
X4.4494Y-1.0844
X4.459Y-2.0
X4.466Y-1.7242
X4.4783Y-1.846
X4.5219Y-2.025
X4.5219Y-2.5
X4.55Y-1.4
X4.575Y-2.1035
X4.6Y-2.2
X4.6096Y-1.8249
X4.65Y-1.45
X4.65Y-2.75
X4.7245Y-2.6465
X4.75Y-1.35
X4.7877Y-2.783
X4.825Y-2.3
X4.8464Y-1.975
X4.85Y-1.4
X4.8849Y-1.9307
X4.9Y-2.5
X4.9489Y-2.1035
X4.95Y-1.45
X5.0301Y-2.1443
X5.04Y-1.2
X5.075Y-2.325
X5.1019Y-2.0251
X5.15Y-1.2
X5.175Y-1.05
X5.1996Y-2.0124
X5.2Y-1.3
X5.2Y-2.7
X5.2576Y-1.7709
X5.3Y-2.85
X5.3335Y-1.9791
X5.3783Y-1.9198
X5.4026Y-1.825
X5.4744Y-1.2274
X5.475Y-2.65
X5.5035Y-1.6996
X5.5116Y-1.0751
X5.5348Y-2.035
X5.535Y-1.92
X5.54Y-2.75
X5.55Y-1.88
X5.55Y-2.09
X5.55Y-2.4
X5.6044Y-1.8913
X5.6265Y-2.4708
X5.6389Y-1.7466
X5.6396Y-1.8571
X5.6471Y-1.2571
X5.65Y-0.85
X5.65Y-1.4
X5.7402Y-2.4883
X5.7532Y-2.206
X5.7607Y-2.0535
X5.8Y-1.05
X5.8Y-1.25
X5.845Y-2.82
X5.85Y-1.925
X5.93Y-0.7716
X5.935Y-2.6108
X5.965Y-2.5823
X5.9832Y-2.473
X6.0Y-1.15
X6.075Y-1.75
X6.1Y-1.3
X6.1Y-1.875
X6.1164Y-2.1171
X6.15Y-0.8
X6.17Y-1.75
X6.1748Y-2.123
X6.2431Y-2.1174
X6.2889Y-1.7411
X6.2928Y-2.1169
X6.3771Y-1.2893
X6.3869Y-2.3602
X6.42Y-2.14
X6.46Y-2.052
X6.531Y-2.244
X6.556Y-1.1007
X6.6375Y-1.7275
X6.75Y-1.4
X6.808Y-1.486
X6.8525Y-1.9986
X6.9316Y-1.5436
X6.95Y-1.7
X7.0Y-2.3
X7.05Y-1.7
X7.5Y-1.26
T2
X1.51Y-1.69
X1.51Y-2.29
X1.61Y-1.69
X1.61Y-2.29
X1.71Y-1.69
X1.71Y-2.29
X1.81Y-1.69
X1.81Y-2.29
X1.91Y-1.69
X1.91Y-2.29
X2.01Y-1.69
X2.01Y-2.29
X2.11Y-1.69
X2.11Y-2.29
X2.21Y-1.69
X2.21Y-2.29
X2.31Y-1.69
X2.31Y-2.29
X2.41Y-1.69
X2.41Y-2.29
X2.51Y-1.69
X2.51Y-2.29
X2.61Y-1.69
X2.61Y-2.29
X2.71Y-1.69
X2.71Y-2.29
X2.81Y-1.69
X2.81Y-2.29
X3.15Y-1.2
X3.15Y-1.3
X3.15Y-1.4
X3.15Y-1.5
X3.15Y-1.6
X3.15Y-1.7
X3.25Y-1.1
X3.25Y-1.2
X3.25Y-1.3
X3.25Y-1.4
X3.25Y-1.5
X3.25Y-1.6
X3.25Y-1.7
X3.25Y-1.8
X3.35Y-1.1
X3.35Y-1.2
X3.35Y-1.7
X3.35Y-1.8
X3.45Y-1.1
X3.45Y-1.2
X3.45Y-1.7
X3.45Y-1.8
X3.55Y-1.1
X3.55Y-1.2
X3.55Y-1.7
X3.55Y-1.8
X3.65Y-1.1
X3.65Y-1.2
X3.65Y-1.7
X3.65Y-1.8
X3.75Y-1.1
X3.75Y-1.2
X3.75Y-1.3
X3.75Y-1.4
X3.75Y-1.5
X3.75Y-1.6
X3.75Y-1.7
X3.75Y-1.8
X3.85Y-1.2
X3.85Y-1.3
X3.85Y-1.4
X3.85Y-1.5
X3.85Y-1.6
X3.85Y-1.7
X4.53Y-0.94
X4.53Y-1.54
X4.63Y-0.94
X4.63Y-1.54
X4.73Y-0.94
X4.73Y-1.54
X4.83Y-0.94
X4.83Y-1.54
X4.93Y-0.94
X4.93Y-1.54
X5.03Y-0.94
X5.03Y-1.54
X5.13Y-0.94
X5.13Y-1.54
X5.23Y-0.94
X5.23Y-1.54
X5.33Y-0.94
X5.33Y-1.54
X5.43Y-0.94
X5.43Y-1.54
X5.53Y-0.94
X5.53Y-1.54
X5.63Y-0.94
X5.63Y-1.54
X5.73Y-0.94
X5.73Y-1.54
X5.83Y-0.94
X5.83Y-1.54
X5.93Y-0.94
X5.93Y-1.54
X6.03Y-0.94
X6.03Y-1.54
X6.13Y-0.94
X6.13Y-1.54
X6.23Y-0.94
X6.23Y-1.54
X6.2629Y-1.79
X6.33Y-0.94
X6.33Y-1.54
X6.43Y-0.94
X6.43Y-1.54
X6.455Y-1.79
X6.7Y-1.9
X6.8Y-1.9
X6.9Y-1.9
X7.0Y-1.9
X7.1Y-1.9
X7.2Y-1.9
T3
X0.65Y-1.1283
X0.65Y-1.2283
X0.65Y-1.3283
X0.65Y-1.4283
X0.65Y-1.5283
X0.65Y-1.6283
X0.65Y-1.7283
X0.65Y-1.8283
X0.75Y-1.1283
X0.75Y-1.2283
X0.75Y-1.3283
X0.75Y-1.4283
X0.75Y-1.5283
X0.75Y-1.6283
X0.75Y-1.7283
X0.75Y-1.8283
T4
X0.672Y-2.5114
X0.672Y-2.6886
X0.928Y-2.5114
X0.928Y-2.6886
X1.072Y-2.2114
X1.072Y-2.3886
X1.072Y-2.8114
X1.072Y-2.9886
X1.328Y-2.2114
X1.328Y-2.3886
X1.328Y-2.8114
X1.328Y-2.9886
X1.472Y-2.5114
X1.472Y-2.6886
X1.728Y-2.5114
X1.728Y-2.6886
X2.722Y-2.7114
X2.722Y-2.8886
X2.978Y-2.7114
X2.978Y-2.8886
X3.722Y-2.7114
X3.722Y-2.8886
X3.978Y-2.7114
X3.978Y-2.8886
X4.722Y-2.7114
X4.722Y-2.8886
X4.978Y-2.7114
X4.978Y-2.8886
X5.822Y-2.7114
X5.822Y-2.8886
X6.078Y-2.7114
X6.078Y-2.8886
X7.072Y-2.6114
X7.072Y-2.7886
X7.328Y-2.6114
X7.328Y-2.7886
T5
X0.9063Y-1.1016
X0.9063Y-1.7984
X1.3Y-1.0031
X1.3Y-1.2
X1.3Y-1.7
X1.3Y-1.8969
T6
X0.7Y-0.9567
X0.7Y-2.0
X7.5898Y-0.9567
X7.5898Y-2.0
T7
X0.7Y-2.9
X7.6Y-2.9
M30
