%TF.GenerationSoftware,KiCad,Pcbnew,9.0.0*%
%TF.CreationDate,2025-03-31T18:37:57+02:00*%
%TF.ProjectId,servicetastatur,73657276-6963-4657-9461-737461747572,rev?*%
%TF.SameCoordinates,Original*%
%TF.FileFunction,Soldermask,Bot*%
%TF.FilePolarity,Negative*%
%FSLAX46Y46*%
G04 Gerber Fmt 4.6, Leading zero omitted, Abs format (unit mm)*
G04 Created by KiCad (PCBNEW 9.0.0) date 2025-03-31 18:37:57*
%MOMM*%
%LPD*%
G01*
G04 APERTURE LIST*
G04 Aperture macros list*
%AMRoundRect*
0 Rectangle with rounded corners*
0 $1 Rounding radius*
0 $2 $3 $4 $5 $6 $7 $8 $9 X,Y pos of 4 corners*
0 Add a 4 corners polygon primitive as box body*
4,1,4,$2,$3,$4,$5,$6,$7,$8,$9,$2,$3,0*
0 Add four circle primitives for the rounded corners*
1,1,$1+$1,$2,$3*
1,1,$1+$1,$4,$5*
1,1,$1+$1,$6,$7*
1,1,$1+$1,$8,$9*
0 Add four rect primitives between the rounded corners*
20,1,$1+$1,$2,$3,$4,$5,0*
20,1,$1+$1,$4,$5,$6,$7,0*
20,1,$1+$1,$6,$7,$8,$9,0*
20,1,$1+$1,$8,$9,$2,$3,0*%
G04 Aperture macros list end*
%ADD10C,0.150000*%
%ADD11C,2.000000*%
%ADD12C,1.500000*%
%ADD13RoundRect,0.250000X0.550000X-0.550000X0.550000X0.550000X-0.550000X0.550000X-0.550000X-0.550000X0*%
%ADD14C,1.600000*%
%ADD15O,1.524000X3.250000*%
%ADD16C,4.000000*%
%ADD17C,2.340000*%
%ADD18R,1.422400X1.422400*%
%ADD19C,1.422400*%
%ADD20C,7.400000*%
%ADD21C,1.800000*%
%ADD22C,5.500000*%
G04 APERTURE END LIST*
D10*
X146812000Y-48514000D02*
X146812000Y-49149000D01*
X146685000Y-49276000D01*
X146558000Y-49022000D01*
X146558000Y-48514000D01*
X146685000Y-48260000D01*
X146812000Y-48514000D01*
G36*
X146812000Y-48514000D02*
G01*
X146812000Y-49149000D01*
X146685000Y-49276000D01*
X146558000Y-49022000D01*
X146558000Y-48514000D01*
X146685000Y-48260000D01*
X146812000Y-48514000D01*
G37*
X146304000Y-69088000D02*
X147447000Y-69900800D01*
X146862800Y-70002400D01*
X146431000Y-70408800D01*
X146177000Y-71501000D01*
X146177000Y-72771000D01*
X147015200Y-74117200D01*
X147574000Y-74523600D01*
X147320000Y-74676000D01*
X146177000Y-74676000D01*
X145161000Y-73914000D01*
X144780000Y-74295000D01*
X144145000Y-73152000D01*
X143510000Y-73533000D01*
X143256000Y-72009000D01*
X142494000Y-72009000D01*
X142494000Y-70866000D01*
X141732000Y-70485000D01*
X143383000Y-69088000D01*
X144018000Y-69088000D01*
X144907000Y-68453000D01*
X146304000Y-69088000D01*
G36*
X146304000Y-69088000D02*
G01*
X147447000Y-69900800D01*
X146862800Y-70002400D01*
X146431000Y-70408800D01*
X146177000Y-71501000D01*
X146177000Y-72771000D01*
X147015200Y-74117200D01*
X147574000Y-74523600D01*
X147320000Y-74676000D01*
X146177000Y-74676000D01*
X145161000Y-73914000D01*
X144780000Y-74295000D01*
X144145000Y-73152000D01*
X143510000Y-73533000D01*
X143256000Y-72009000D01*
X142494000Y-72009000D01*
X142494000Y-70866000D01*
X141732000Y-70485000D01*
X143383000Y-69088000D01*
X144018000Y-69088000D01*
X144907000Y-68453000D01*
X146304000Y-69088000D01*
G37*
X189738000Y-49022000D02*
X189484000Y-50038000D01*
X186182000Y-52070000D01*
X186055000Y-51181000D01*
X186309000Y-49276000D01*
X187198000Y-49022000D01*
X189230000Y-47879000D01*
X189738000Y-49022000D01*
G36*
X189738000Y-49022000D02*
G01*
X189484000Y-50038000D01*
X186182000Y-52070000D01*
X186055000Y-51181000D01*
X186309000Y-49276000D01*
X187198000Y-49022000D01*
X189230000Y-47879000D01*
X189738000Y-49022000D01*
G37*
X160020000Y-36830000D02*
X158902400Y-37795200D01*
X158699200Y-38150800D01*
X158292800Y-37998400D01*
X157937200Y-38100000D01*
X158242000Y-37266008D01*
X158699200Y-36271200D01*
X160020000Y-36830000D01*
G36*
X160020000Y-36830000D02*
G01*
X158902400Y-37795200D01*
X158699200Y-38150800D01*
X158292800Y-37998400D01*
X157937200Y-38100000D01*
X158242000Y-37266008D01*
X158699200Y-36271200D01*
X160020000Y-36830000D01*
G37*
X166624000Y-56896000D02*
X166370000Y-57277000D01*
X165608000Y-57404000D01*
X165354000Y-57150000D01*
X165608000Y-56769000D01*
X166116000Y-56642000D01*
X166624000Y-56896000D01*
G36*
X166624000Y-56896000D02*
G01*
X166370000Y-57277000D01*
X165608000Y-57404000D01*
X165354000Y-57150000D01*
X165608000Y-56769000D01*
X166116000Y-56642000D01*
X166624000Y-56896000D01*
G37*
X197256400Y-45008800D02*
X190906400Y-48209200D01*
X189839600Y-48361600D01*
X189433200Y-47650400D01*
X191389594Y-46156792D01*
X189400453Y-43437460D01*
X188391800Y-44018200D01*
X187782200Y-42113200D01*
X190296800Y-39370000D01*
X188290200Y-36601400D01*
X191820800Y-33782000D01*
X197231000Y-30861000D01*
X197256400Y-45008800D01*
G36*
X197256400Y-45008800D02*
G01*
X190906400Y-48209200D01*
X189839600Y-48361600D01*
X189433200Y-47650400D01*
X191389594Y-46156792D01*
X189400453Y-43437460D01*
X188391800Y-44018200D01*
X187782200Y-42113200D01*
X190296800Y-39370000D01*
X188290200Y-36601400D01*
X191820800Y-33782000D01*
X197231000Y-30861000D01*
X197256400Y-45008800D01*
G37*
X164846000Y-52070000D02*
X164211000Y-52324000D01*
X163576000Y-52197000D01*
X164084000Y-51816000D01*
X164846000Y-52070000D01*
G36*
X164846000Y-52070000D02*
G01*
X164211000Y-52324000D01*
X163576000Y-52197000D01*
X164084000Y-51816000D01*
X164846000Y-52070000D01*
G37*
X188087000Y-28879800D02*
X185521600Y-29921200D01*
X188950600Y-30683200D01*
X187937140Y-31986220D01*
X186029600Y-31902400D01*
X186626500Y-32613600D01*
X185724800Y-32715200D01*
X185623200Y-32156400D01*
X184683400Y-32537400D01*
X182803800Y-32232600D01*
X182626000Y-30810200D01*
X181914800Y-29972000D01*
X184556400Y-28829000D01*
X187426600Y-28448000D01*
X188087000Y-28879800D01*
G36*
X188087000Y-28879800D02*
G01*
X185521600Y-29921200D01*
X188950600Y-30683200D01*
X187937140Y-31986220D01*
X186029600Y-31902400D01*
X186626500Y-32613600D01*
X185724800Y-32715200D01*
X185623200Y-32156400D01*
X184683400Y-32537400D01*
X182803800Y-32232600D01*
X182626000Y-30810200D01*
X181914800Y-29972000D01*
X184556400Y-28829000D01*
X187426600Y-28448000D01*
X188087000Y-28879800D01*
G37*
X196850000Y-59918600D02*
X193217800Y-61341000D01*
X189534800Y-62230000D01*
X187756800Y-62280800D01*
X186537600Y-61696600D01*
X189357000Y-59664600D01*
X190347600Y-57912000D01*
X189280800Y-57531000D01*
X190296800Y-53187600D01*
X186588400Y-52857400D01*
X186385200Y-52273200D01*
X191516000Y-49784000D01*
X196824600Y-48488600D01*
X196850000Y-59918600D01*
G36*
X196850000Y-59918600D02*
G01*
X193217800Y-61341000D01*
X189534800Y-62230000D01*
X187756800Y-62280800D01*
X186537600Y-61696600D01*
X189357000Y-59664600D01*
X190347600Y-57912000D01*
X189280800Y-57531000D01*
X190296800Y-53187600D01*
X186588400Y-52857400D01*
X186385200Y-52273200D01*
X191516000Y-49784000D01*
X196824600Y-48488600D01*
X196850000Y-59918600D01*
G37*
X163525200Y-37338000D02*
X163677600Y-37744400D01*
X163677600Y-38100000D01*
X164185600Y-37998400D01*
X164642800Y-38303200D01*
X164693600Y-38658800D01*
X165201600Y-38608000D01*
X165557200Y-38892480D01*
X165557200Y-39370000D01*
X164998400Y-39827200D01*
X164693600Y-40081200D01*
X164236400Y-40081200D01*
X163830000Y-39624000D01*
X163474400Y-39928800D01*
X162763200Y-40182800D01*
X162814000Y-39166800D01*
X162458400Y-39319200D01*
X162204400Y-39268400D01*
X162204400Y-37795200D01*
X162356800Y-37388800D01*
X162661600Y-36982400D01*
X163068000Y-36982400D01*
X163525200Y-37338000D01*
G36*
X163525200Y-37338000D02*
G01*
X163677600Y-37744400D01*
X163677600Y-38100000D01*
X164185600Y-37998400D01*
X164642800Y-38303200D01*
X164693600Y-38658800D01*
X165201600Y-38608000D01*
X165557200Y-38892480D01*
X165557200Y-39370000D01*
X164998400Y-39827200D01*
X164693600Y-40081200D01*
X164236400Y-40081200D01*
X163830000Y-39624000D01*
X163474400Y-39928800D01*
X162763200Y-40182800D01*
X162814000Y-39166800D01*
X162458400Y-39319200D01*
X162204400Y-39268400D01*
X162204400Y-37795200D01*
X162356800Y-37388800D01*
X162661600Y-36982400D01*
X163068000Y-36982400D01*
X163525200Y-37338000D01*
G37*
X137617200Y-40843200D02*
X137058400Y-41554400D01*
X137922000Y-41656000D01*
X136499600Y-42367200D01*
X135890000Y-42926000D01*
X137007600Y-42722800D01*
X135585200Y-43637200D01*
X134264400Y-43891200D01*
X134620000Y-43572162D01*
X135991600Y-42722800D01*
X134670800Y-43129200D01*
X137007600Y-41960800D01*
X134721600Y-42570400D01*
X136347200Y-41757600D01*
X135280400Y-41554400D01*
X135280400Y-41198800D01*
X137312400Y-40640000D01*
X137617200Y-40843200D01*
G36*
X137617200Y-40843200D02*
G01*
X137058400Y-41554400D01*
X137922000Y-41656000D01*
X136499600Y-42367200D01*
X135890000Y-42926000D01*
X137007600Y-42722800D01*
X135585200Y-43637200D01*
X134264400Y-43891200D01*
X134620000Y-43572162D01*
X135991600Y-42722800D01*
X134670800Y-43129200D01*
X137007600Y-41960800D01*
X134721600Y-42570400D01*
X136347200Y-41757600D01*
X135280400Y-41554400D01*
X135280400Y-41198800D01*
X137312400Y-40640000D01*
X137617200Y-40843200D01*
G37*
X135382000Y-52730400D02*
X133451600Y-52578000D01*
X134670800Y-53441600D01*
X134874000Y-54559200D01*
X135331200Y-55829200D01*
X134772400Y-56083200D01*
X133604000Y-56184800D01*
X134315200Y-57251600D01*
X132842000Y-56286400D01*
X131876800Y-55422800D01*
X132283200Y-55524400D01*
X132994400Y-55219600D01*
X133197600Y-54660800D01*
X132689600Y-53746400D01*
X133502400Y-53543200D01*
X133299200Y-52882800D01*
X133299200Y-52476400D01*
X134264400Y-52476400D01*
X135382000Y-52730400D01*
G36*
X135382000Y-52730400D02*
G01*
X133451600Y-52578000D01*
X134670800Y-53441600D01*
X134874000Y-54559200D01*
X135331200Y-55829200D01*
X134772400Y-56083200D01*
X133604000Y-56184800D01*
X134315200Y-57251600D01*
X132842000Y-56286400D01*
X131876800Y-55422800D01*
X132283200Y-55524400D01*
X132994400Y-55219600D01*
X133197600Y-54660800D01*
X132689600Y-53746400D01*
X133502400Y-53543200D01*
X133299200Y-52882800D01*
X133299200Y-52476400D01*
X134264400Y-52476400D01*
X135382000Y-52730400D01*
G37*
X170561000Y-37084000D02*
X169037000Y-38354000D01*
X168656000Y-39243000D01*
X167513000Y-38989000D01*
X165684200Y-39119629D01*
X165684200Y-38892480D01*
X166928800Y-38150800D01*
X167132000Y-37338000D01*
X167513000Y-37084000D01*
X168529000Y-37287200D01*
X169418000Y-36779200D01*
X170561000Y-37084000D01*
G36*
X170561000Y-37084000D02*
G01*
X169037000Y-38354000D01*
X168656000Y-39243000D01*
X167513000Y-38989000D01*
X165684200Y-39119629D01*
X165684200Y-38892480D01*
X166928800Y-38150800D01*
X167132000Y-37338000D01*
X167513000Y-37084000D01*
X168529000Y-37287200D01*
X169418000Y-36779200D01*
X170561000Y-37084000D01*
G37*
X142875000Y-50165000D02*
X142748000Y-50927000D01*
X141986000Y-51181000D01*
X140970000Y-50673000D01*
X140589000Y-50165000D01*
X140843000Y-49530000D01*
X141859000Y-49530000D01*
X142875000Y-50165000D01*
G36*
X142875000Y-50165000D02*
G01*
X142748000Y-50927000D01*
X141986000Y-51181000D01*
X140970000Y-50673000D01*
X140589000Y-50165000D01*
X140843000Y-49530000D01*
X141859000Y-49530000D01*
X142875000Y-50165000D01*
G37*
X143637000Y-44958000D02*
X144272000Y-45212000D01*
X144399000Y-45593000D01*
X144462500Y-45720000D01*
X144295812Y-46053375D01*
X142748000Y-45339000D01*
X142494000Y-44958000D01*
X142875000Y-44704000D01*
X143637000Y-44958000D01*
G36*
X143637000Y-44958000D02*
G01*
X144272000Y-45212000D01*
X144399000Y-45593000D01*
X144462500Y-45720000D01*
X144295812Y-46053375D01*
X142748000Y-45339000D01*
X142494000Y-44958000D01*
X142875000Y-44704000D01*
X143637000Y-44958000D01*
G37*
D11*
%TO.C,SW2*%
X37390000Y-63790000D03*
X43890000Y-63790000D03*
X37390000Y-68290000D03*
X43890000Y-68290000D03*
%TD*%
D12*
%TO.C,Y1*%
X163957000Y-45466000D03*
X159077000Y-45466000D03*
%TD*%
D13*
%TO.C,U3*%
X38354000Y-58166000D03*
D14*
X40894000Y-58166000D03*
X43434000Y-58166000D03*
X45974000Y-58166000D03*
X48514000Y-58166000D03*
X51054000Y-58166000D03*
X53594000Y-58166000D03*
X56134000Y-58166000D03*
X58674000Y-58166000D03*
X61214000Y-58166000D03*
X63754000Y-58166000D03*
X66294000Y-58166000D03*
X68834000Y-58166000D03*
X71374000Y-58166000D03*
X71374000Y-42926000D03*
X68834000Y-42926000D03*
X66294000Y-42926000D03*
X63754000Y-42926000D03*
X61214000Y-42926000D03*
X58674000Y-42926000D03*
X56134000Y-42926000D03*
X53594000Y-42926000D03*
X51054000Y-42926000D03*
X48514000Y-42926000D03*
X45974000Y-42926000D03*
X43434000Y-42926000D03*
X40894000Y-42926000D03*
X38354000Y-42926000D03*
%TD*%
D11*
%TO.C,SW3*%
X119940000Y-68870000D03*
X126440000Y-68870000D03*
X119940000Y-73370000D03*
X126440000Y-73370000D03*
%TD*%
%TO.C,SW7*%
X27230000Y-56170000D03*
X33730000Y-56170000D03*
X27230000Y-60670000D03*
X33730000Y-60670000D03*
%TD*%
%TO.C,SW5*%
X17070000Y-63790000D03*
X23570000Y-63790000D03*
X17070000Y-68290000D03*
X23570000Y-68290000D03*
%TD*%
D15*
%TO.C,J3*%
X170180000Y-48260000D03*
X172720000Y-48260000D03*
X175260000Y-48260000D03*
X177800000Y-48260000D03*
X180340000Y-48260000D03*
X182880000Y-48260000D03*
%TD*%
D16*
%TO.C,RV2*%
X28020000Y-27980000D03*
D17*
X33020000Y-25480000D03*
X23020000Y-27980000D03*
X33020000Y-30480000D03*
%TD*%
D11*
%TO.C,SW9*%
X94540000Y-68870000D03*
X101040000Y-68870000D03*
X94540000Y-73370000D03*
X101040000Y-73370000D03*
%TD*%
D18*
%TO.C,U11*%
X90170000Y-30480000D03*
D19*
X87630000Y-27940000D03*
X87630000Y-30480000D03*
X85090000Y-27940000D03*
X85090000Y-30480000D03*
X82550000Y-27940000D03*
X80010000Y-30480000D03*
X82550000Y-30480000D03*
X80010000Y-33020000D03*
X82550000Y-33020000D03*
X80010000Y-35560000D03*
X82550000Y-35560000D03*
X80010000Y-38100000D03*
X82550000Y-38100000D03*
X80010000Y-40640000D03*
X82550000Y-40640000D03*
X80010000Y-43180000D03*
X82550000Y-45720000D03*
X82550000Y-43180000D03*
X85090000Y-45720000D03*
X85090000Y-43180000D03*
X87630000Y-45720000D03*
X87630000Y-43180000D03*
X90170000Y-45720000D03*
X90170000Y-43180000D03*
X92710000Y-45720000D03*
X92710000Y-43180000D03*
X95250000Y-45720000D03*
X97790000Y-43180000D03*
X95250000Y-43180000D03*
X97790000Y-40640000D03*
X95250000Y-40640000D03*
X97790000Y-38100000D03*
X95250000Y-38100000D03*
X97790000Y-35560000D03*
X95250000Y-35560000D03*
X97790000Y-33020000D03*
X95250000Y-33020000D03*
X97790000Y-30480000D03*
X95250000Y-27940000D03*
X95250000Y-30480000D03*
X92710000Y-27940000D03*
X92710000Y-30480000D03*
X90170000Y-27940000D03*
%TD*%
D20*
%TO.C,H2*%
X193040000Y-73660000D03*
%TD*%
D16*
%TO.C,RV1*%
X28020000Y-45680000D03*
D17*
X33020000Y-43180000D03*
X23020000Y-45680000D03*
X33020000Y-48180000D03*
%TD*%
D21*
%TO.C,J2*%
X19050000Y-46440000D03*
X16510000Y-46440000D03*
X19050000Y-43900000D03*
X16510000Y-43900000D03*
X19050000Y-41360000D03*
X16510000Y-41360000D03*
X19050000Y-38820000D03*
X16510000Y-38820000D03*
X19050000Y-36280000D03*
X16510000Y-36280000D03*
X19050000Y-33740000D03*
X16510000Y-33740000D03*
X19050000Y-31200000D03*
X16510000Y-31200000D03*
X19050000Y-28660000D03*
X16510000Y-28660000D03*
D22*
X17780000Y-24300000D03*
X17780000Y-50800000D03*
X192780000Y-24300000D03*
X192780000Y-50800000D03*
%TD*%
D11*
%TO.C,SW6*%
X69140000Y-68870000D03*
X75640000Y-68870000D03*
X69140000Y-73370000D03*
X75640000Y-73370000D03*
%TD*%
%TO.C,SW1*%
X179630000Y-66330000D03*
X186130000Y-66330000D03*
X179630000Y-70830000D03*
X186130000Y-70830000D03*
%TD*%
D20*
%TO.C,H1*%
X17780000Y-73660000D03*
%TD*%
D11*
%TO.C,SW4*%
X147880000Y-68870000D03*
X154380000Y-68870000D03*
X147880000Y-73370000D03*
X154380000Y-73370000D03*
%TD*%
%TO.C,SW8*%
X27230000Y-71410000D03*
X33730000Y-71410000D03*
X27230000Y-75910000D03*
X33730000Y-75910000D03*
%TD*%
D13*
%TO.C,U1*%
X115062000Y-39116000D03*
D14*
X117602000Y-39116000D03*
X120142000Y-39116000D03*
X122682000Y-39116000D03*
X125222000Y-39116000D03*
X127762000Y-39116000D03*
X130302000Y-39116000D03*
X132842000Y-39116000D03*
X135382000Y-39116000D03*
X137922000Y-39116000D03*
X140462000Y-39116000D03*
X143002000Y-39116000D03*
X145542000Y-39116000D03*
X148082000Y-39116000D03*
X150622000Y-39116000D03*
X153162000Y-39116000D03*
X155702000Y-39116000D03*
X158242000Y-39116000D03*
X160782000Y-39116000D03*
X163322000Y-39116000D03*
X163322000Y-23876000D03*
X160782000Y-23876000D03*
X158242000Y-23876000D03*
X155702000Y-23876000D03*
X153162000Y-23876000D03*
X150622000Y-23876000D03*
X148082000Y-23876000D03*
X145542000Y-23876000D03*
X143002000Y-23876000D03*
X140462000Y-23876000D03*
X137922000Y-23876000D03*
X135382000Y-23876000D03*
X132842000Y-23876000D03*
X130302000Y-23876000D03*
X127762000Y-23876000D03*
X125222000Y-23876000D03*
X122682000Y-23876000D03*
X120142000Y-23876000D03*
X117602000Y-23876000D03*
X115062000Y-23876000D03*
%TD*%
M02*
